<svg width="25" height="25" viewBox="0 0 25 25" fill="none" xmlns="http://www.w3.org/2000/svg">
<path d="M12.5746 2.9082C15.1207 2.9082 17.5625 3.91963 19.3628 5.71998C21.1632 7.52033 22.1746 9.96212 22.1746 12.5082C22.1746 15.0543 21.1632 17.4961 19.3628 19.2964C17.5625 21.0968 15.1207 22.1082 12.5746 22.1082C10.0285 22.1082 7.58673 21.0968 5.78638 19.2964C3.98604 17.4961 2.97461 15.0543 2.97461 12.5082C2.97461 9.96212 3.98604 7.52033 5.78638 5.71998C7.58673 3.91963 10.0285 2.9082 12.5746 2.9082ZM12.5746 4.1082C11.4715 4.1082 10.3792 4.32548 9.36007 4.74762C8.34093 5.16975 7.41492 5.78849 6.63491 6.56851C5.8549 7.34852 5.23616 8.27453 4.81402 9.29366C4.39188 10.3128 4.17461 11.4051 4.17461 12.5082C4.17461 13.6113 4.39188 14.7036 4.81402 15.7227C5.23616 16.7419 5.8549 17.6679 6.63491 18.4479C7.41492 19.2279 8.34093 19.8467 9.36007 20.2688C10.3792 20.6909 11.4715 20.9082 12.5746 20.9082C14.8024 20.9082 16.939 20.0232 18.5143 18.4479C20.0896 16.8726 20.9746 14.736 20.9746 12.5082C20.9746 10.2804 20.0896 8.14381 18.5143 6.56851C16.939 4.9932 14.8024 4.1082 12.5746 4.1082ZM9.16061 15.4206C10.028 16.2939 11.1969 16.8017 12.4272 16.8396C13.6574 16.8776 14.8555 16.4428 15.775 15.6246L15.9886 15.4206C16.094 15.3135 16.2358 15.2498 16.3859 15.2422C16.5361 15.2346 16.6836 15.2836 16.7993 15.3796C16.915 15.4755 16.9904 15.6114 17.0108 15.7603C17.0311 15.9092 16.9948 16.0604 16.909 16.1838L16.8406 16.2678L16.813 16.2942C16.2528 16.8508 15.5885 17.2917 14.8579 17.5915C14.1273 17.8914 13.3448 18.0444 12.5551 18.0419C11.7654 18.0393 10.9839 17.8812 10.2553 17.5766C9.52666 17.272 8.86518 16.8269 8.30861 16.2666C8.19642 16.1536 8.13371 16.0007 8.13428 15.8415C8.13484 15.6823 8.19863 15.5298 8.31161 15.4176C8.42459 15.3054 8.57751 15.2427 8.73673 15.2433C8.89595 15.2438 9.04842 15.3076 9.16061 15.4206ZM15.5746 9.5082C15.8929 9.5082 16.1981 9.63463 16.4231 9.85968C16.6482 10.0847 16.7746 10.3899 16.7746 10.7082C16.7746 11.0265 16.6482 11.3317 16.4231 11.5567C16.1981 11.7818 15.8929 11.9082 15.5746 11.9082C15.2564 11.9082 14.9511 11.7818 14.7261 11.5567C14.501 11.3317 14.3746 11.0265 14.3746 10.7082C14.3746 10.3899 14.501 10.0847 14.7261 9.85968C14.9511 9.63463 15.2564 9.5082 15.5746 9.5082ZM9.57461 9.5082C9.89287 9.5082 10.1981 9.63463 10.4231 9.85968C10.6482 10.0847 10.7746 10.3899 10.7746 10.7082C10.7746 11.0265 10.6482 11.3317 10.4231 11.5567C10.1981 11.7818 9.89287 11.9082 9.57461 11.9082C9.25635 11.9082 8.95113 11.7818 8.72608 11.5567C8.50104 11.3317 8.37461 11.0265 8.37461 10.7082C8.37461 10.3899 8.50104 10.0847 8.72608 9.85968C8.95113 9.63463 9.25635 9.5082 9.57461 9.5082Z" fill="#B5B5C3"/>
</svg>
