<svg width="15" height="21" viewBox="0 0 15 21" fill="none" xmlns="http://www.w3.org/2000/svg">
<path d="M2.17461 10.5082C2.17461 10.3491 2.1114 10.1965 1.99887 10.0839C1.88635 9.97142 1.73374 9.9082 1.57461 9.9082C1.41548 9.9082 1.26287 9.97142 1.15035 10.0839C1.03782 10.1965 0.974609 10.3491 0.974609 10.5082C0.974378 12.1549 1.58974 13.7422 2.69987 14.9585C3.81001 16.1748 5.33471 16.9321 6.97461 17.0818V19.5082C6.97461 19.6673 7.03782 19.8199 7.15034 19.9325C7.26287 20.045 7.41548 20.1082 7.57461 20.1082C7.73374 20.1082 7.88635 20.045 7.99887 19.9325C8.1114 19.8199 8.17461 19.6673 8.17461 19.5082V17.0818C9.81451 16.9321 11.3392 16.1748 12.4493 14.9585C13.5595 13.7422 14.1748 12.1549 14.1746 10.5082C14.1746 10.3491 14.1114 10.1965 13.9989 10.0839C13.8864 9.97142 13.7337 9.9082 13.5746 9.9082C13.4155 9.9082 13.2629 9.97142 13.1503 10.0839C13.0378 10.1965 12.9746 10.3491 12.9746 10.5082C12.9746 11.2173 12.8349 11.9195 12.5636 12.5747C12.2922 13.2299 11.8944 13.8251 11.393 14.3266C10.8915 14.828 10.2963 15.2258 9.6411 15.4972C8.98594 15.7685 8.28375 15.9082 7.57461 15.9082C6.86547 15.9082 6.16328 15.7685 5.50812 15.4972C4.85296 15.2258 4.25767 14.828 3.75623 14.3266C3.2548 13.8251 2.85704 13.2299 2.58566 12.5747C2.31428 11.9195 2.17461 11.2173 2.17461 10.5082ZM11.1746 10.5082C11.1746 11.463 10.7953 12.3787 10.1202 13.0538C9.44506 13.7289 8.52939 14.1082 7.57461 14.1082C6.61983 14.1082 5.70416 13.7289 5.02902 13.0538C4.35389 12.3787 3.97461 11.463 3.97461 10.5082V4.5082C3.97461 3.55342 4.35389 2.63775 5.02902 1.96262C5.70416 1.28749 6.61983 0.908203 7.57461 0.908203C8.52939 0.908203 9.44506 1.28749 10.1202 1.96262C10.7953 2.63775 11.1746 3.55342 11.1746 4.5082V10.5082Z" fill="#B5B5C3"/>
</svg>
